#!OML:ASF H:\Terrain\Patient Classification 1\Takeo\Monday\TakeoMonday.ASF
:FULLY-SPECIFIED
:DEGREES
1360
root 15.4825 17.7078 1.89309 -4.07684 -29.556 2.40433
lowerback 5.94088 2.55489 -3.7012
upperback 2.07856 3.18776 0.661261
thorax -1.42234 1.58271 2.52403
lowerneck -7.08902 3.04301 -3.27387
upperneck -13.1039 4.35257 2.50163
head -3.14704 2.20493 1.34993
rclavicle -2.80783e-015 3.97569e-016
rhumerus -27.2988 43.279 -110.835
rradius 68.6678
rwrist -19.1556
rhand -42.4813 40.9465
rfingers 7.12502
rthumb -15.3588 11.537
lclavicle -2.80783e-015 3.97569e-016
lhumerus -28.0983 -19.3203 105.012
lradius 86.9228
lwrist 23.889
lhand -30.1497 25.918
lfingers 7.12502
lthumb -3.46206 55.8697
rfemur -10.4455 11.167 10.073
rtibia 23
rfoot -7.97559 -5.75942
rtoes -13.234
lfemur 2.97812 -13.2238 -20.6726
ltibia 18.1727
lfoot -15.0589 4.52939
ltoes -11.9434
1361
root 15.3995 17.6986 1.88794 -4.55488 -29.4622 2.68357
lowerback 6.2728 2.70376 -3.84113
upperback 2.13555 3.36196 0.573768
thorax -1.5631 1.67068 2.48433
lowerneck -6.83744 2.89561 -3.67878
upperneck -13.1012 4.20232 2.86772
head -3.20922 2.13923 1.54039
rclavicle 2.9271e-014 -7.7526e-015
rhumerus -27.2812 42.7643 -110.863
rradius 68.5743
rwrist -18.9569
rhand -42.6416 41.3584
rfingers 7.12502
rthumb -15.5131 11.9608
lclavicle 2.9271e-014 -7.7526e-015
lhumerus -28.0658 -19.6 105.016
lradius 86.8357
lwrist 23.8348
lhand -30.4025 25.8431
lfingers 7.12502
lthumb -3.70614 55.7906
rfemur -10.0332 11.0015 10.1913
rtibia 23.2907
rfoot -8.41527 -5.49303
rtoes -13.5269
lfemur 3.64356 -13.3844 -20.8048
ltibia 17.6349
lfoot -14.6883 4.49995
ltoes -9.57832
1362
root 15.3197 17.6966 1.88805 -4.8566 -29.1198 3.04491
lowerback 6.312 2.76566 -4.01225
upperback 2.21005 3.43075 0.464313
thorax -1.51593 1.70271 2.46163
lowerneck -6.85115 2.81806 -3.91619
upperneck -12.9014 4.12341 3.02761
head -3.1462 2.10844 1.63636
rclavicle 2.30342e-014 9.54166e-015
rhumerus -27.0109 42.3623 -110.756
rradius 68.3338
rwrist -18.7657
rhand -42.7658 40.7263
rfingers 7.12502
rthumb -15.6328 11.338
lclavicle 2.30342e-014 9.54166e-015
lhumerus -27.8023 -19.9239 105.012
lradius 86.6115
lwrist 23.7744
lhand -30.5109 25.8931
lfingers 7.12502
lthumb -3.81079 55.8388
rfemur -9.72173 10.7384 10.1253
rtibia 23.3872
rfoot -8.79858 -5.58324
rtoes -12.7506
lfemur 3.95274 -13.8601 -21.0309
ltibia 17.2669
lfoot -14.4443 4.44586
ltoes -8.02092
1363
root 15.2443 17.7203 1.87591 -4.04705 -28.3886 2.93431
lowerback 5.70576 2.57055 -3.85348
upperback 1.99373 3.20597 0.442881
thorax -1.37593 1.59283 2.39105
lowerneck -6.99437 2.87104 -3.80632
upperneck -12.6149 4.17669 2.85338
head -3.01477 2.13638 1.56011
rclavicle -2.21645e-014 -5.1684e-015
rhumerus -26.8074 42.3427 -110.797
rradius 68.1177
rwrist -18.9426
rhand -42.9102 40.2856
rfingers 7.12502
rthumb -15.7718 10.9081
lclavicle -2.21645e-014 -5.1684e-015
lhumerus -27.5991 -19.9804 104.956
lradius 86.4611
lwrist 23.7476
lhand -30.5593 25.9353
lfingers 7.12502
lthumb -3.85753 55.8801
rfemur -10.3021 10.166 10.3316
rtibia 23.4164
rfoot -8.8795 -5.96291
rtoes -10.8376
lfemur 3.22819 -14.4423 -20.5332
ltibia 16.9856
lfoot -14.0126 4.32503
ltoes -9.26808
1364
root 15.1707 17.729 1.86937 -4.48208 -28.0174 2.76573
lowerback 6.31071 2.50577 -3.52021
upperback 2.14474 3.11513 0.469094
thorax -1.53458 1.54721 2.21654
lowerneck -7.19395 2.89316 -3.66475
upperneck -12.375 4.18505 2.63887
head -2.88633 2.14121 1.46682
rclavicle -2.05494e-014 1.27222e-014
rhumerus -26.6517 42.4477 -110.82
rradius 67.9984
rwrist -19.0672
rhand -42.8954 40.4709
rfingers 7.12502
rthumb -15.7576 11.0923
lclavicle -2.05494e-014 1.27222e-014
lhumerus -27.4053 -19.8494 104.85
lradius 86.4265
lwrist 23.6998
lhand -30.6798 25.8642
lfingers 7.12502
lthumb -3.97393 55.8069
rfemur -9.5818 9.99098 10.8731
rtibia 23.4586
rfoot -8.95789 -6.20877
rtoes -9.47547
lfemur 3.91917 -14.9866 -20.3967
ltibia 16.7555
lfoot -13.6886 4.68195
ltoes -9.51537
